<?xml version="1.0" encoding="UTF-8"?>
<!-- Generated by Pixelmator Pro 3.6.17 -->
<svg width="600" height="550" viewBox="0 0 600 550" xmlns="http://www.w3.org/2000/svg">
    <g id="x00201">
        <g id="1643008338272">
            <linearGradient id="linearGradient1" x1="11.717858" y1="219.491591" x2="301.519559" y2="219.491591" gradientUnits="userSpaceOnUse">
                <stop offset="1e-05" stop-color="#12ade3" stop-opacity="1"/>
                <stop offset="1" stop-color="#81cfe5" stop-opacity="1"/>
            </linearGradient>
            <path id="Path" fill="url(#linearGradient1)" fill-rule="evenodd" stroke="none" d="M 301.523743 8.818481 C 198.857788 44.98291 136.691345 50.842651 25.899384 48.562134 C 9.941498 48.233643 4.368958 63.265198 10.500488 82.086487 C 22.828156 119.926331 41.95105 197.995911 67.741425 310.049805 C 80.523376 365.585449 268.954041 430.156738 301.522949 430.156738 C 301.522949 289.760559 301.523743 149.214661 301.523743 8.818481 Z"/>
            <linearGradient id="linearGradient2" x1="591.226394" y1="245.291402" x2="301.453417" y2="193.691402" gradientUnits="userSpaceOnUse">
                <stop offset="1e-05" stop-color="#e86b93" stop-opacity="1"/>
                <stop offset="0.631373" stop-color="#7e79ab" stop-opacity="1"/>
                <stop offset="1" stop-color="#1488c3" stop-opacity="1"/>
            </linearGradient>
            <path id="path1" fill="url(#linearGradient2)" fill-rule="evenodd" stroke="none" d="M 301.523743 8.818481 C 404.188904 44.98291 466.184143 50.849121 576.974915 48.568115 C 592.93396 48.23999 598.506104 63.27124 592.374207 82.092529 C 580.046875 119.932434 560.924011 198.001953 535.13324 310.055847 C 522.350952 365.591492 334.091125 430.156738 301.522949 430.156738 C 301.522949 289.760559 301.523743 149.214661 301.523743 8.818481 Z"/>
            <path id="path2" fill="#f383a9" fill-rule="evenodd" stroke="none" d="M 113.953308 78.075256 L 213.260406 182.833557 L 255.684509 155.295227 Z"/>
            <linearGradient id="linearGradient3" x1="53.772661" y1="316.917606" x2="549.092598" y2="316.917606" gradientUnits="userSpaceOnUse">
                <stop offset="1e-05" stop-color="#313f62" stop-opacity="1"/>
                <stop offset="1" stop-color="#0b1940" stop-opacity="1"/>
            </linearGradient>
            <path id="path3" fill="url(#linearGradient3)" fill-rule="evenodd" stroke="none" d="M 96.082184 91.687988 C 100.044647 97.530029 104.463654 104.717529 108.426147 110.559937 C 107.015991 167.438416 105.14743 222.971802 103.737244 279.849915 C 98.85675 298.316284 90.261719 315.756897 77.95105 331.020142 C 141.02533 409.745483 194.628113 446.423157 301.522217 495.006287 C 301.522217 510.720032 301.522949 526.440613 301.522949 542.154785 C 358.524658 507.755066 414.411011 475.63208 472.544678 436.993225 C 499.270508 402.012512 525.597168 370.604614 549.098633 333.04071 C 536.622803 310.857544 528.23645 293.4505 520.894714 273.40918 C 518.074402 215.65802 514.912415 157.922363 512.433044 100.155273 C 512.2229 95.251709 510.163086 91.90686 506.79248 91.694031 C 502.830811 97.536072 498.410645 104.723572 494.448914 110.565979 C 495.859497 167.444458 497.726929 222.977844 499.137085 279.855957 C 504.017578 298.322327 512.613342 315.762939 524.924011 331.02655 C 461.850159 409.751526 408.416321 446.423157 301.522217 495.006287 C 301.522217 510.720032 301.522949 526.440613 301.522949 542.154785 C 244.520508 507.755066 188.463654 475.626038 130.330414 436.987183 C 103.604218 402.006531 77.277527 370.598633 53.776062 333.034668 C 66.251526 310.851501 74.638702 293.444458 81.980438 273.403137 C 84.80069 215.651978 87.962646 157.915894 90.441254 100.149231 C 90.652161 95.245667 92.712372 91.900818 96.082184 91.687988 Z"/>
            <path id="path4" fill="#f9eeea" fill-rule="evenodd" stroke="none" d="M 301.522949 495.093628 C 316.008789 385.132385 307.36084 266.522949 301.522949 149.642883 C 284.826538 149.567322 270.778809 151.44873 255.875732 155.300049 C 240.0289 163.422302 226.89505 171.425049 213.281586 182.809814 C 181.68396 147.904663 146.444763 107.302368 113.953308 78.075256 C 105.78952 76.422485 96.214111 83.741943 96.076904 92.096985 C 99.916901 99.572876 104.021484 104.439392 108.426147 110.559937 C 106.767303 167.705994 105.144379 223.601074 103.485168 280.746826 C 96.333191 300.478943 89.570831 315.145752 77.743927 331.371643 C 138.689941 421.471802 214.755585 458.38269 301.522949 495.093628 Z"/>
            <path id="path5" fill="#e46d93" fill-rule="evenodd" stroke="none" d="M 121.472687 126.216614 L 120.604919 251.465637 L 183.6633 202.002563 Z"/>
            <path id="path6" fill="#2e3c5f" fill-rule="evenodd" stroke="none" d="M 121.472687 126.216614 L 183.6633 202.002563 L 203.000488 187.166077 C 177.489075 164.864197 129.734741 122.435608 126.46582 120.260803 C 123.196899 118.086487 118.678497 122.557678 121.472687 126.216614 Z"/>
            <path id="path7" fill="none" stroke="#2e3c5f" stroke-width="11.338583" stroke-linecap="round" d="M 155.683838 322.623169 C 177.862091 299.899902 217.532776 302.045898 247.22702 337.671753"/>
            <path id="path8" fill="none" stroke="#2e3c5f" stroke-width="11.338583" stroke-linecap="round" d="M 239.798004 403.282104 C 255.771057 423.230408 287.334229 432.512207 301.56189 398.732666"/>
            <linearGradient id="linearGradient4" x1="213.279307" y1="240.075654" x2="301.511244" y2="240.075654" gradientUnits="userSpaceOnUse">
                <stop offset="1e-05" stop-color="#f5e1e0" stop-opacity="1"/>
                <stop offset="0.290196" stop-color="#f7e7e5" stop-opacity="1"/>
                <stop offset="1" stop-color="#f9eeea" stop-opacity="1"/>
            </linearGradient>
            <path id="path9" fill="url(#linearGradient4)" fill-rule="evenodd" stroke="none" d="M 301.52179 330.063232 C 301.491577 269.899902 301.553589 209.806152 301.522949 149.642883 C 285.366272 149.072205 269.988464 152.206909 254.232788 154.895325 C 239.16037 162.345886 223.228149 174.636963 213.281586 182.809814 C 242.7052 232.104309 272.098938 280.769104 301.52179 330.063232 Z"/>
            <path id="path10" fill="#edb5be" fill-rule="evenodd" stroke="none" d="M 175.870667 342.899231 C 199.270874 342.709106 217.343048 357.434509 217.343048 366.150452 C 217.343048 374.866516 206.103882 383.328064 184.980499 383.328064 C 163.857849 383.328064 141.23053 371.070251 141.420654 360.456238 C 141.610413 349.842163 152.470123 343.088928 175.870667 342.899231 Z"/>
            <path id="path11" fill="#f9d6dc" fill-rule="evenodd" stroke="none" d="M 488.921753 78.08136 L 390.215271 184.241089 L 347.190247 155.30127 Z"/>
            <linearGradient id="linearGradient5" x1="528.239433" y1="263.571087" x2="298.426016" y2="310.783811" gradientUnits="userSpaceOnUse">
                <stop offset="1e-05" stop-color="#e8c5cc" stop-opacity="1"/>
                <stop offset="0.819608" stop-color="#f1d3d8" stop-opacity="1"/>
                <stop offset="1" stop-color="#fae1e5" stop-opacity="1"/>
            </linearGradient>
            <path id="path12" fill="url(#linearGradient5)" fill-rule="evenodd" stroke="none" d="M 301.522949 149.642883 L 301.522949 495.093628 C 388.289551 458.38269 464.184753 421.477905 525.130798 331.377686 C 513.303833 315.152161 506.541931 300.484924 499.389954 280.752869 C 497.731079 223.607117 496.108154 167.712036 494.448914 110.565979 C 498.853638 104.445435 502.958191 99.578918 506.798523 92.103394 C 506.66095 83.748352 497.084778 76.428894 488.921753 78.08136 C 456.430298 107.308411 421.191162 147.910706 389.593506 182.816223 C 375.979675 171.431152 362.846191 163.428345 346.999756 155.306152 C 332.096313 151.454773 318.218262 149.567322 301.522949 149.642883 Z"/>
            <path id="path13" fill="#e46d93" fill-rule="evenodd" stroke="none" d="M 481.402405 126.222656 L 482.270142 251.47168 L 419.211792 202.008606 Z"/>
            <path id="path14" fill="#0e1c43" fill-rule="evenodd" stroke="none" d="M 481.402405 126.222656 L 419.211792 202.008606 L 399.875 187.172119 C 425.386414 164.870239 473.139587 122.44165 476.408875 120.266907 C 479.678528 118.092529 484.195862 122.56366 481.402405 126.222656 Z"/>
            <path id="path15" fill="none" stroke="#0e1c43" stroke-width="11.338583" stroke-linecap="round" d="M 447.19165 322.629578 C 425.012207 299.906006 385.342346 302.051941 355.647278 337.677795"/>
            <path id="path16" fill="none" stroke="#2e3c5f" stroke-width="11.338583" stroke-linecap="round" d="M 363.267212 403.288086 C 347.294556 423.23645 315.731323 432.51825 301.504089 398.738708"/>
            <linearGradient id="linearGradient6" x1="389.599181" y1="240.078677" x2="301.541102" y2="240.078677" gradientUnits="userSpaceOnUse">
                <stop offset="1e-05" stop-color="#efd5d6" stop-opacity="1"/>
                <stop offset="1" stop-color="#f9e0e4" stop-opacity="1"/>
            </linearGradient>
            <path id="path17" fill="url(#linearGradient6)" fill-rule="evenodd" stroke="none" d="M 301.52179 330.063232 C 301.552795 269.899902 301.491943 209.806152 301.522949 149.642883 C 317.678955 149.072205 333.504944 152.604919 348.641968 154.901367 C 363.948669 164.636292 377.158447 171.966675 389.593506 182.816223 C 360.170288 232.110352 330.945068 280.769104 301.52179 330.063232 Z"/>
            <path id="path18" fill="#edb5be" fill-rule="evenodd" stroke="none" d="M 427.004395 342.905273 C 403.603882 342.71521 385.532043 357.440552 385.532043 366.156494 C 385.532043 374.872559 396.771179 383.334106 417.89386 383.334106 C 439.016846 383.334106 461.644592 371.076355 461.454773 360.46228 C 461.264709 349.848206 450.405334 343.094971 427.004395 342.905273 Z"/>
            <path id="path19" fill="#2e3c5f" fill-rule="evenodd" stroke="none" d="M 301.56189 398.732666 C 293.167175 395.276306 265.57135 376.511292 274.453247 369.715698 C 286.042419 360.848572 321.365479 361.815735 329.196655 370.750549 C 334.131958 376.38208 311.71521 395.480408 301.56189 398.732666 Z"/>
            <linearGradient id="linearGradient7" x1="320.541921" y1="376.656063" x2="282.017197" y2="383.123591" gradientUnits="userSpaceOnUse">
                <stop offset="1e-05" stop-color="#e56c97" stop-opacity="1"/>
                <stop offset="0.890196" stop-color="#f1b5ca" stop-opacity="1"/>
                <stop offset="1" stop-color="#fefefe" stop-opacity="1"/>
            </linearGradient>
            <path id="path20" fill="url(#linearGradient7)" fill-rule="evenodd" stroke="none" d="M 321.389282 373.345215 C 316.807739 367.916687 285.181396 367.620728 280.486877 374.042175 C 279.306885 375.282593 294.469971 384.954407 301.460571 389.023865 C 308.392273 384.490967 321.737366 374.858887 321.389282 373.345215 Z"/>
            <linearGradient id="linearGradient8" x1="299.040189" y1="379.024693" x2="281.508094" y2="374.558047" gradientUnits="userSpaceOnUse">
                <stop offset="1e-05" stop-color="#ec9bb5" stop-opacity="1"/>
                <stop offset="0.180392" stop-color="#f5ccd9" stop-opacity="1"/>
                <stop offset="1" stop-color="#fefefe" stop-opacity="1"/>
            </linearGradient>
            <path id="path21" fill="url(#linearGradient8)" fill-rule="evenodd" stroke="none" d="M 299.394287 369.273865 C 290.877563 369.484436 282.697144 371.018921 280.486877 374.042175 C 279.655762 374.916321 286.938538 379.976013 293.758301 384.312622 L 299.394287 369.273865 Z"/>
        </g>
    </g>
</svg>
